# xmcd
# 
# Track frame offsets:
#     150
#     20322
#     36575
#     49887
#     71725
#     88100
#     101992
#     114660
#     130755
#     139765
#     158115
# 
# Disc length: 2353
# 
# Revision: 2
# Processed by: cddbd v1.5.2PL0 Copyright (c) Steve Scherf et al.
# Submitted via: fre:ac v1.0.31
# 
DISCID=9e092f0b
DTITLE=John Denver - Farewell Andromeda
DYEAR=0
DGENRE=Rock/Pop
TTITLE0=I'd Rather Be A Cowboy (Lady's Chains)
TTITLE1=Berkeley Woman
TTITLE2=Please, Daddy
TTITLE3=Angels From Montgomery
TTITLE4=River Of Love
TTITLE5=Rocky Mountain Suite (Cold Nights In Canada)
TTITLE6=Whiskey Basin Blues
TTITLE7=Sweet Misery
TTITLE8=Zachary And Jennifer
TTITLE9=We Don't Live Here No More
TTITLE10=Farewell Andromeda (Welcome To My Morning)
EXTD=
EXTT0=
EXTT1=
EXTT2=
EXTT3=
EXTT4=
EXTT5=
EXTT6=
EXTT7=
EXTT8=
EXTT9=
EXTT10=
PLAYORDER=
